<svg id="ico-circle-g" xmlns="http://www.w3.org/2000/svg" width="8" height="8" viewBox="0 0 8 8">
  <g id="타원_4" data-name="타원 4" fill="none">
    <path d="M4,0A4,4,0,1,1,0,4,4,4,0,0,1,4,0Z" stroke="none"/>
    <path d="M 4 2 C 2.897200107574463 2 2 2.897200107574463 2 4 C 2 5.102799892425537 2.897200107574463 6 4 6 C 5.102799892425537 6 6 5.102799892425537 6 4 C 6 2.897200107574463 5.102799892425537 2 4 2 M 4 0 C 6.209139823913574 0 8 1.790860176086426 8 4 C 8 6.209139823913574 6.209139823913574 8 4 8 C 1.790860176086426 8 0 6.209139823913574 0 4 C 0 1.790860176086426 1.790860176086426 0 4 0 Z" stroke="none" fill="#999"/>
  </g>
</svg>
