<svg id="ico_logout" xmlns="http://www.w3.org/2000/svg" width="20" height="20" viewBox="0 0 20 20">
  <rect id="사각형_3" data-name="사각형 3" width="20" height="20" fill="none"/>
  <path id="logout" d="M44.934,17.513a.861.861,0,0,1-.861.861h-8.12A2.874,2.874,0,0,1,33.082,15.5V2.871A2.874,2.874,0,0,1,35.953,0h8.12a.861.861,0,0,1,0,1.723h-8.12A1.15,1.15,0,0,0,34.8,2.871V15.5a1.15,1.15,0,0,0,1.148,1.148h8.12A.861.861,0,0,1,44.934,17.513Zm3.9-8.935L44.737,4.485A.861.861,0,1,0,43.519,5.7l2.623,2.623h-6.78a.861.861,0,1,0,0,1.723h6.78l-2.623,2.623a.861.861,0,1,0,1.218,1.218L48.83,9.8a.861.861,0,0,0,0-1.218Z" transform="translate(-31.082 1)" fill="#004274"/>
</svg>
