<svg xmlns="http://www.w3.org/2000/svg" xmlns:xlink="http://www.w3.org/1999/xlink" width="30" height="30" viewBox="0 0 30 30">
  <defs>
    <linearGradient id="linear-gradient" x1="0.5" x2="0.5" y2="1" gradientUnits="objectBoundingBox">
      <stop offset="0" stop-color="#5a4dcb"/>
      <stop offset="0.318" stop-color="#a827a6"/>
      <stop offset="0.72" stop-color="#e0316b"/>
      <stop offset="1" stop-color="#fdd775"/>
    </linearGradient>
  </defs>
  <g id="icon_insta" transform="translate(-5 -5)">
    <circle id="타원_42" data-name="타원 42" cx="15" cy="15" r="15" transform="translate(5 5)" fill="url(#linear-gradient)"/>
    <path id="패스_6134" data-name="패스 6134" d="M40.7,32.232c2.735,0,3.059.01,4.14.06a5.666,5.666,0,0,1,1.9.353,3.392,3.392,0,0,1,1.944,1.944,5.672,5.672,0,0,1,.353,1.9c.049,1.08.06,1.4.06,4.14s-.01,3.059-.06,4.14a5.672,5.672,0,0,1-.353,1.9,3.392,3.392,0,0,1-1.944,1.944,5.666,5.666,0,0,1-1.9.353c-1.08.049-1.4.06-4.14.06s-3.059-.01-4.14-.06a5.666,5.666,0,0,1-1.9-.353,3.392,3.392,0,0,1-1.944-1.944,5.666,5.666,0,0,1-.353-1.9c-.049-1.08-.06-1.4-.06-4.14s.01-3.059.06-4.14a5.666,5.666,0,0,1,.353-1.9,3.392,3.392,0,0,1,1.944-1.944,5.666,5.666,0,0,1,1.9-.353c1.08-.049,1.4-.06,4.14-.06m0-1.846c-2.782,0-3.131.012-4.224.062a7.52,7.52,0,0,0-2.487.476,5.238,5.238,0,0,0-3,3,7.52,7.52,0,0,0-.476,2.487c-.05,1.093-.062,1.442-.062,4.224s.012,3.131.062,4.224A7.52,7.52,0,0,0,31,47.34a5.238,5.238,0,0,0,3,3,7.52,7.52,0,0,0,2.487.476c1.093.05,1.442.062,4.224.062s3.131-.012,4.224-.062a7.52,7.52,0,0,0,2.487-.476,5.238,5.238,0,0,0,3-3,7.52,7.52,0,0,0,.476-2.487c.05-1.093.062-1.442.062-4.224s-.012-3.131-.062-4.224a7.52,7.52,0,0,0-.476-2.487,5.238,5.238,0,0,0-3-3,7.52,7.52,0,0,0-2.487-.476c-1.093-.05-1.442-.062-4.224-.062" transform="translate(-20.46 -20.386)" fill="#fff"/>
    <path id="패스_6135" data-name="패스 6135" d="M56.4,51.062a5.261,5.261,0,1,0,5.26,5.26,5.26,5.26,0,0,0-5.26-5.26m0,8.675a3.415,3.415,0,1,1,3.415-3.415A3.415,3.415,0,0,1,56.4,59.737" transform="translate(-36.152 -36.078)" fill="#fff"/>
    <path id="패스_6136" data-name="패스 6136" d="M93.006,46.328A1.229,1.229,0,1,1,91.776,45.1a1.229,1.229,0,0,1,1.229,1.229" transform="translate(-66.064 -31.553)" fill="#fff"/>
  </g>
</svg>
