<?xml version="1.0" encoding="UTF-8"?>
<svg id="Layer_2" data-name="Layer 2" xmlns="http://www.w3.org/2000/svg" viewBox="0 0 234.41 42">
  <defs>
    <style>
      .cls-1, .cls-2 {
        fill-rule: evenodd;
      }

      .cls-1, .cls-2, .cls-3, .cls-4 {
        stroke-width: 0px;
      }

      .cls-1, .cls-3 {
        fill: #787878;
      }

      .cls-2, .cls-4 {
        fill: #135495;
      }
    </style>
  </defs>
  <g id="Layer_1-2" data-name="Layer 1">
    <g>
      <g>
        <g>
          <path class="cls-4" d="M47.02,21.4c-.51.85-1.23,1.5-2.16,1.94-.92.44-1.99.66-3.21.66s-2.31-.22-3.24-.66c-.93-.44-1.66-1.09-2.18-1.94-.52-.85-.78-1.88-.78-3.08v-10.31h3.66v10.31c0,.97.21,1.67.63,2.1.42.43,1.05.65,1.91.65s1.44-.22,1.85-.65c.41-.43.62-1.13.62-2.1v-10.31h3.66v10.31c0,1.2-.26,2.22-.77,3.08Z"/>
          <path class="cls-4" d="M58.27,18.72c-.14-.23-.42-.46-.83-.68-.41-.22-1.01-.47-1.81-.73-1.65-.53-2.94-1.19-3.89-1.96-.95-.77-1.42-1.79-1.42-3.07,0-.9.25-1.68.76-2.36.51-.68,1.21-1.2,2.1-1.57.9-.37,1.92-.55,3.08-.55s2.2.21,3.09.62c.89.41,1.58.99,2.07,1.73.49.74.74,1.59.74,2.55h-3.64c0-.62-.19-1.11-.57-1.47-.38-.36-.96-.54-1.74-.54-.71,0-1.26.15-1.65.46-.39.3-.59.69-.59,1.15s.24.83.73,1.15c.48.32,1.22.63,2.2.93,1.78.55,3.09,1.23,3.95,2.06.86.82,1.29,1.88,1.29,3.16,0,1.4-.52,2.49-1.56,3.26-1.04.77-2.46,1.16-4.25,1.16-1.11,0-2.16-.2-3.15-.59-.99-.39-1.79-.98-2.4-1.78-.61-.79-.92-1.78-.92-2.95h3.66c0,.87.24,1.49.71,1.87.48.38,1.18.57,2.1.57.72,0,1.26-.14,1.62-.43.36-.29.54-.66.54-1.13,0-.35-.07-.64-.22-.87Z"/>
          <path class="cls-4" d="M74.8,23.33c-1.03.45-2.32.67-3.88.67-1.39,0-2.6-.3-3.65-.9-1.05-.6-1.86-1.47-2.43-2.62-.57-1.15-.86-2.54-.86-4.17v-.8c0-1.62.28-3,.83-4.16.56-1.16,1.34-2.04,2.35-2.64,1.01-.61,2.19-.91,3.53-.91,2.02,0,3.55.47,4.57,1.42,1.03.95,1.63,2.26,1.82,3.93h-3.53c-.13-.81-.4-1.42-.82-1.83-.42-.41-1.06-.62-1.93-.62-1.01,0-1.78.41-2.32,1.21-.53.81-.8,2-.8,3.57v.82c0,3.18,1.15,4.77,3.44,4.77.62,0,1.11-.06,1.45-.18.35-.12.64-.28.87-.47v-2.45h-2.71v-2.64h6.37v6.43c-.52.59-1.29,1.11-2.32,1.56Z"/>
          <path class="cls-4" d="M95.19,23.24h-16.4v-2.62h5.44v-4.2h3.21v4.2h7.76v2.62ZM93.83,9.55c0,1.6-.05,3.05-.14,4.34-.09,1.29-.34,2.85-.73,4.67l-3.1-.3c.22-1.01.4-2.11.56-3.29l-10.03.61-.39-2.79,10.64-.28.07-1.86h-10.14v-2.56h13.26v1.47Z"/>
          <path class="cls-4" d="M105.74,10.57h-5.42v3.7c1.56-.03,2.84-.08,3.83-.16,1-.08,1.96-.21,2.88-.4l.3,2.58c-1.07.23-2.19.38-3.36.44-1.17.06-2.9.1-5.2.1h-1.65v-8.82h8.6v2.56ZM109.75,18.74c1.13.65,1.69,1.55,1.69,2.71s-.56,2.04-1.69,2.7c-1.13.66-2.65.99-4.57.99s-3.48-.33-4.6-.99c-1.12-.66-1.68-1.56-1.68-2.7s.56-2.06,1.68-2.71c1.12-.65,2.65-.98,4.6-.98s3.44.33,4.57.98ZM102.84,20.56c-.48.17-.72.47-.72.89s.24.74.73.92c.48.18,1.26.27,2.33.27s1.85-.09,2.35-.28c.5-.19.75-.49.75-.91s-.25-.72-.75-.89c-.5-.17-1.28-.26-2.35-.26s-1.86.09-2.34.26ZM111.37,17.48h-3.19V6.69h3.19v10.79Z"/>
          <path class="cls-4" d="M125.3,8.11c1.05.44,1.88,1.06,2.48,1.85.6.79.9,1.7.9,2.73,0,1.34-.49,2.47-1.47,3.38-.98.91-2.27,1.49-3.86,1.73v2.64h6.67v2.62h-16.44v-2.62h6.59v-2.66c-1.57-.25-2.85-.82-3.81-1.72-.97-.9-1.45-2.03-1.45-3.37,0-1.03.3-1.94.9-2.73.6-.79,1.42-1.41,2.47-1.85,1.05-.44,2.21-.66,3.5-.66s2.48.22,3.53.66ZM119.08,10.73c-.67.46-1.01,1.11-1.01,1.96s.33,1.55,1,2c.66.45,1.57.68,2.71.68s2.07-.23,2.74-.68c.67-.46,1.01-1.12,1.01-2s-.34-1.51-1.02-1.96c-.68-.46-1.59-.68-2.73-.68s-2.03.23-2.7.68Z"/>
          <path class="cls-4" d="M147.38,18.5h-16.4v-2.58h16.4v2.58ZM145.99,9.86h-2.04v2.47h1.86v2.49h-13.28v-2.49h1.84v-2.47h-2.04v-2.51h13.65v2.51ZM145.52,24.83h-12.67v-5.37h3.23v2.82h9.45v2.56ZM140.73,12.33v-2.47h-3.14v2.47h3.14Z"/>
          <path class="cls-4" d="M156.07,13.21h1.19v-6.35h2.97v17.42h-2.97v-8.51h-1.19v4.94h-7.26v-12.26h7.26v4.77ZM151.71,18.17h1.41v-7.21h-1.41v7.21ZM164.08,25.11h-3.05V6.69h3.05v18.42Z"/>
          <path class="cls-4" d="M175.02,10.74h-5.33v2.49h5.16v2.47h-5.16v2.82c2.2-.03,4.27-.19,6.22-.48l.26,2.58c-1.2.19-2.42.31-3.66.37-1.24.06-2.73.09-4.46.09h-1.62v-12.96h8.6v2.62ZM180.14,13.43h2.43v2.64h-2.43v9.03h-3.21V6.69h3.21v6.74Z"/>
          <path class="cls-4" d="M189.52,14.08c-1.03,1.65-2.75,2.98-5.18,4.01l-1.49-2.3c1.55-.59,2.74-1.34,3.57-2.25l-2.86.35-.37-2.53,4.53-.2c.04-.2.09-.47.15-.8h-3.94v-2.58h7.13c0,2.56-.51,4.66-1.54,6.3ZM198.73,24.93h-12.52v-6.93h12.52v6.93ZM189.3,22.38h6.3v-1.82h-6.3v1.82ZM198.73,17.39h-3.03v-4.09h-.97v3.94h-2.97V7.04h2.97v3.68h.97v-4.01h3.03v10.68Z"/>
          <path class="cls-4" d="M211.01,10.66h-1.52v7.63l1.86-.19.2,2.3c-1.62.32-3.3.52-5.04.62-1.74.09-3.64.14-5.71.14l-.28-2.58,1.73-.02v-7.89h-1.26v-2.58h10.01v2.58ZM206.4,18.46v-7.8h-1.04v7.84l1.04-.04ZM215.93,25.11h-3.16v-9.34h-2.19v-2.56h2.19v-6.52h3.16v18.42Z"/>
          <path class="cls-4" d="M234.41,23.05h-16.44v-2.71h16.44v2.71ZM228.36,11.47c.4.83,1.07,1.57,1.99,2.21.92.64,2.13,1.09,3.62,1.33l-1.39,2.69c-1.59-.29-2.92-.82-4.01-1.58-1.08-.77-1.92-1.7-2.51-2.82-.61,1.1-1.45,2.03-2.54,2.79-1.08.77-2.41,1.3-3.99,1.6l-1.39-2.69c1.47-.25,2.67-.7,3.6-1.35.92-.66,1.59-1.4,1.99-2.23.4-.83.61-1.67.61-2.52v-1.21h3.4v1.21c0,.88.2,1.74.61,2.57Z"/>
        </g>
        <g>
          <path class="cls-3" d="M39.3,30.81l-3.69,9.6h-1.44l3.69-9.6h1.44Z"/>
          <path class="cls-3" d="M43.58,30.81l-3.69,9.6h-1.44l3.69-9.6h1.44Z"/>
          <path class="cls-3" d="M52.82,36.54h-1.37v-1.19h-2.54v-1.17h2.54v-1.15h-2.42c-.34.89-.9,1.64-1.67,2.26-.77.62-1.75,1.09-2.93,1.42l-.56-1.14c1.24-.34,2.19-.82,2.87-1.44.68-.62,1.07-1.34,1.18-2.18h-3.47v-1.17h4.96c0,.38-.03.74-.08,1.09h2.12v-1.87h1.37v6.54ZM51.17,36.91c.55.18.98.44,1.28.78.3.34.45.73.45,1.19s-.15.87-.45,1.21c-.3.34-.73.6-1.28.79-.55.18-1.19.28-1.91.28-1.12,0-2.01-.2-2.67-.61-.66-.41-.99-.96-.99-1.66,0-.46.15-.85.45-1.19.3-.34.73-.6,1.28-.78.56-.18,1.2-.28,1.93-.28s1.36.09,1.91.28ZM47.55,38.07c-.4.19-.6.46-.6.81s.2.63.6.82c.4.19.97.28,1.71.28s1.26-.09,1.67-.28c.4-.19.6-.46.6-.82s-.2-.62-.6-.81c-.4-.19-.96-.29-1.67-.29s-1.3.1-1.71.29Z"/>
          <path class="cls-3" d="M55.79,34.49c1.41-.03,2.86-.18,4.37-.47l.16,1.2c-1.6.31-3.27.47-5,.47h-.93v-5.13h1.4v3.93ZM62.47,41.06h-7v-4.22h7v4.22ZM56.83,39.9h4.32v-1.93h-4.32v1.93ZM62.47,32.43h1.5v1.18h-1.5v2.73h-1.36v-6.34h1.36v2.43Z"/>
          <path class="cls-3" d="M76.49,37.43h-2.38v3.77h-1.41v-3.77h-2.34v3.77h-1.4v-3.77h-2.35v-1.17h9.87v1.17ZM73.56,30.71c.59.21,1.05.5,1.38.87.33.38.49.81.49,1.32s-.16.94-.49,1.32c-.33.38-.79.66-1.38.87-.59.2-1.27.3-2.03.3s-1.44-.1-2.03-.3c-.59-.2-1.05-.49-1.38-.87-.33-.38-.49-.81-.49-1.32s.16-.94.49-1.32c.33-.38.79-.67,1.38-.87.59-.21,1.27-.31,2.03-.31s1.44.1,2.03.31ZM69.73,31.92c-.44.23-.66.56-.66.98s.22.75.66.98c.44.23,1.05.35,1.81.35s1.38-.12,1.82-.35c.44-.23.66-.56.66-.98s-.22-.75-.66-.98-1.05-.35-1.82-.35-1.36.12-1.81.35Z"/>
          <path class="cls-3" d="M81.32,30.68c.44.22.78.52,1.03.91.25.39.37.82.37,1.32s-.12.93-.37,1.32c-.25.39-.59.69-1.02.9-.43.21-.92.32-1.47.32s-1.03-.11-1.46-.32c-.44-.21-.78-.51-1.03-.9-.25-.38-.38-.82-.38-1.32s.13-.93.38-1.32c.25-.38.6-.69,1.03-.91.44-.22.93-.33,1.46-.33s1.03.11,1.46.33ZM78.75,31.92c-.28.24-.42.57-.42.98s.14.74.42.99c.28.25.65.37,1.11.37s.83-.12,1.11-.37c.28-.25.42-.58.42-.99s-.14-.74-.42-.98c-.28-.24-.65-.36-1.11-.36s-.83.12-1.11.36ZM85.81,39.09h-5.83v.82h6.12v1.14h-7.45v-3.05h5.78v-.77h-5.82v-1.14h7.2v2.99ZM85.81,35.64h-1.4v-5.64h1.4v5.64Z"/>
          <path class="cls-3" d="M87.88,39.07c.15-.16.36-.24.63-.24.23,0,.42.06.57.18.15.12.24.28.29.48.04.16.07.31.07.44,0,.3-.09.62-.27.95-.13.25-.31.47-.52.67-.21.2-.42.34-.62.44l-.38-.43c.37-.27.6-.6.71-1.01l.03-.08c-.23-.03-.41-.11-.54-.26-.13-.15-.19-.33-.19-.54,0-.24.08-.44.23-.6Z"/>
          <path class="cls-3" d="M102.71,39.85h-9.83v-1.19h3.6v-2.75h1.37v2.75h4.86v1.19ZM101.69,32c0,.97-.03,1.83-.08,2.59s-.19,1.67-.4,2.71l-1.34-.15c.16-.76.28-1.55.36-2.36l-6.35.38-.19-1.26,6.62-.24c.02-.38.03-.88.03-1.52h-6.31v-1.17h7.67v1.02Z"/>
          <path class="cls-3" d="M108.82,32.02h-3.77v2.79c1.09,0,1.99-.04,2.68-.09.69-.05,1.37-.15,2.02-.3l.15,1.18c-.72.15-1.45.25-2.2.3-.75.05-1.78.07-3.09.07h-.93v-5.12h5.14v1.15ZM111.1,37.39c.66.39.99.92.99,1.61s-.33,1.23-.99,1.61c-.66.38-1.56.58-2.71.58s-2.06-.19-2.71-.58c-.65-.38-.98-.92-.98-1.61s.33-1.23.98-1.61c.65-.38,1.56-.58,2.71-.58s2.05.19,2.71.58ZM106.68,38.23c-.4.17-.6.43-.6.77s.2.6.6.79c.4.18.97.28,1.71.28s1.32-.09,1.72-.28c.4-.18.6-.45.6-.79s-.2-.6-.6-.77c-.4-.18-.97-.26-1.73-.26s-1.31.09-1.71.26ZM112.06,36.76h-1.4v-6.76h1.4v6.76Z"/>
          <path class="cls-3" d="M123.08,39.81h-9.87v-1.2h9.87v1.2ZM120.18,31.03c.62.26,1.1.64,1.46,1.11s.53,1.03.53,1.66-.18,1.18-.53,1.67-.84.86-1.46,1.13c-.62.26-1.3.4-2.05.4s-1.42-.13-2.03-.4c-.61-.26-1.09-.64-1.44-1.13-.35-.49-.53-1.05-.53-1.67s.18-1.18.53-1.66c.35-.48.83-.85,1.44-1.11.61-.26,1.28-.4,2.03-.4s1.44.13,2.05.4ZM116.19,32.35c-.5.37-.75.85-.75,1.45s.25,1.09.75,1.45c.5.36,1.15.54,1.93.54s1.46-.18,1.95-.54c.5-.36.75-.84.75-1.45s-.25-1.1-.75-1.46c-.5-.36-1.15-.54-1.95-.54s-1.43.18-1.93.55Z"/>
          <path class="cls-3" d="M133.25,39.91h-9.87v-1.2h4.23v-1.76h-3.06v-3.69h6.16v-1.33h-6.18v-1.18h7.56v3.64h-6.18v1.38h6.42v1.18h-3.36v1.76h4.27v1.2Z"/>
          <path class="cls-3" d="M140.35,31.21c.39.27.71.65.95,1.16h2.47v-2.36h1.36v11.22h-1.36v-4.22h-2.39c-.23.55-.55.99-.96,1.3-.41.31-.87.46-1.39.46s-1.01-.16-1.43-.49c-.42-.33-.74-.79-.98-1.39-.24-.6-.36-1.3-.36-2.1s.12-1.5.36-2.1c.24-.6.56-1.06.98-1.39.42-.33.89-.49,1.43-.49.49,0,.93.13,1.32.4ZM137.96,32.83c-.26.47-.4,1.12-.4,1.95s.13,1.48.4,1.95c.26.47.62.7,1.07.7s.81-.23,1.07-.7c.27-.47.4-1.12.4-1.95s-.13-1.48-.4-1.95c-.27-.47-.63-.71-1.07-.71s-.8.23-1.07.71ZM141.78,34.78c0,.38-.03.73-.08,1.05h2.07v-2.3h-2.1c.07.41.11.83.11,1.25Z"/>
          <path class="cls-3" d="M156.1,36.69h-9.87v-1.14h9.87v1.14ZM155.05,40.93h-7.66v-3.32h1.4v2.16h6.26v1.16ZM154.99,34.29h-7.51v-3.88h1.38v2.73h6.12v1.15Z"/>
          <path class="cls-3" d="M164.81,32.2h-3.83v5.1c1.07,0,1.95-.04,2.61-.08.67-.04,1.34-.13,2.01-.26l.12,1.2c-.72.14-1.47.24-2.24.29-.77.05-1.75.07-2.96.07h-.93v-7.52h5.21v1.2ZM167.93,41.22h-1.4v-11.22h1.4v11.22Z"/>
          <path class="cls-3" d="M173.52,34.99c.22.6.54,1.13.95,1.6.42.47.91.83,1.48,1.07l-.77,1.14c-.62-.28-1.16-.69-1.61-1.24-.46-.55-.81-1.19-1.06-1.91-.26.79-.62,1.48-1.08,2.08-.46.6-1,1.05-1.62,1.36l-.79-1.14c.55-.26,1.04-.64,1.46-1.16.42-.51.74-1.08.96-1.71.22-.63.33-1.27.33-1.9v-.87h-2.35v-1.18h6.1v1.18h-2.34v.87c0,.62.11,1.22.33,1.82ZM178.08,41.2h-1.4v-11.2h1.4v11.2Z"/>
          <path class="cls-3" d="M184.76,31.8h-3.59v.79h3.28v1.09h-3.28v.86c.9,0,1.64-.02,2.24-.05.6-.03,1.19-.09,1.79-.18l.11,1.16c-.66.1-1.32.16-1.97.19-.65.03-1.56.04-2.72.04h-.83v-5.05h4.97v1.15ZM188.32,39.26h-5.72v.71h6.06v1.14h-7.44v-2.92h5.75v-.67h-5.76v-1.16h7.12v2.89ZM188.32,35.98h-1.36v-2.39h-1.84v-1.14h1.84v-2.44h1.36v5.98Z"/>
          <path class="cls-3" d="M198,32.16h-6.03v-1.14h2.4v-1.11h1.36v1.11h2.27v1.14ZM196.34,32.86c.39.18.69.43.91.76.22.33.33.7.33,1.11s-.11.78-.33,1.1c-.22.32-.52.58-.91.76-.39.18-.83.28-1.31.28s-.89-.09-1.27-.28c-.38-.18-.68-.44-.9-.76-.22-.32-.33-.69-.33-1.1s.11-.78.33-1.11c.22-.33.52-.58.89-.76.38-.18.8-.27,1.28-.27s.92.09,1.31.27ZM201.01,41.2h-1.38v-2.39h-5.98v-1.17h7.36v3.56ZM194.15,33.98c-.22.19-.34.44-.34.75s.11.55.34.75c.22.19.52.29.89.29s.67-.1.91-.29c.24-.19.36-.44.36-.75s-.12-.56-.36-.75c-.24-.19-.54-.28-.91-.28s-.66.09-.89.28ZM201.01,37.12h-1.38v-1.24h-1.56v-1.18h1.56v-.97h-1.54v-1.15h1.54v-2.58h1.38v7.12Z"/>
          <path class="cls-3" d="M206.84,33.91c.45.65,1.09,1.12,1.93,1.41l-.72,1.14c-.6-.21-1.12-.53-1.54-.95-.43-.42-.77-.92-1.02-1.49-.25.62-.6,1.16-1.05,1.61-.45.46-.98.8-1.6,1.02l-.74-1.14c.86-.3,1.52-.8,1.98-1.5.46-.69.69-1.45.69-2.28v-1.1h1.4v1.1c0,.8.22,1.52.67,2.18ZM211.42,40.99h-7.45v-3.6h1.37v2.43h6.08v1.17ZM211.12,38.21h-1.38v-8.21h1.38v8.21Z"/>
          <path class="cls-3" d="M216.02,37.63c1.15-.04,2.24-.14,3.27-.3l.11,1.06c-1.06.22-2.13.35-3.23.41-1.1.06-2.32.09-3.66.09l-.18-1.19c1.31,0,2.54-.02,3.69-.07ZM217.31,31.12c.45.23.81.56,1.07.97.26.42.39.88.39,1.4s-.13,1-.39,1.41c-.26.41-.62.73-1.07.97-.45.23-.96.35-1.51.35s-1.07-.12-1.52-.35-.81-.55-1.07-.97c-.26-.41-.4-.88-.4-1.41s.13-.99.4-1.4c.26-.42.62-.74,1.08-.97.46-.23.96-.35,1.52-.35s1.06.12,1.51.35ZM214.63,32.43c-.3.26-.46.62-.46,1.07s.15.81.46,1.07c.3.27.69.4,1.17.4s.86-.13,1.17-.4c.3-.27.46-.63.46-1.07s-.15-.79-.46-1.06c-.3-.27-.69-.4-1.17-.4s-.86.13-1.17.4ZM221.3,41.22h-1.38v-11.22h1.38v11.22Z"/>
          <path class="cls-3" d="M229.45,34.02c-.85.88-2.12,1.51-3.82,1.87l-.48-1.17c2.52-.5,3.87-1.54,4.06-3.1h-3.48v-1.17h5c0,1.5-.42,2.68-1.27,3.57ZM234,39.08h-5.79v.86h6.08v1.16h-7.45v-3.09h5.76v-.77h-5.8v-1.13h7.2v2.97ZM234,35.67h-1.4v-5.67h1.4v5.67Z"/>
        </g>
      </g>
      <g>
        <polygon class="cls-1" points="20.05 17.1 10.08 17.98 10.08 24.09 10.08 26.41 10.08 36.34 26.54 41.54 26.54 16.51 20.05 17.1"/>
        <g>
          <g>
            <path class="cls-2" d="M9.32,15.52v-3.1h-3.1v3.1h3.1Z"/>
            <rect class="cls-4" x="3.13" width="3.1" height="3.1"/>
            <rect class="cls-4" y="3.1" width="3.13" height="3.13"/>
            <rect class="cls-4" x="3.13" y="6.22" width="3.1" height="3.1"/>
          </g>
          <polygon class="cls-2" points="22.77 36.67 22.77 6.47 12.42 7.42 12.42 9.32 9.32 9.32 9.32 12.42 12.42 12.42 12.42 15.52 9.32 15.52 9.32 18.65 6.22 18.65 6.22 15.52 3.13 15.52 3.13 30.46 22.77 36.67"/>
        </g>
      </g>
    </g>
  </g>
</svg>