<svg xmlns="http://www.w3.org/2000/svg" xmlns:xlink="http://www.w3.org/1999/xlink" width="234" height="42" viewBox="0 0 234 42">
  <defs>
    <clipPath id="clip-path">
      <rect id="사각형_4300" data-name="사각형 4300" width="234" height="41.996" transform="translate(0 0)" fill="none"/>
    </clipPath>
    <clipPath id="clip-putter_logo">
      <rect width="234" height="42"/>
    </clipPath>
  </defs>
  <g id="putter_logo" clip-path="url(#clip-putter_logo)">
    <g id="그룹_10585" data-name="그룹 10585">
      <g id="그룹_10584" data-name="그룹 10584" clip-path="url(#clip-path)">
        <path id="패스_5069" data-name="패스 5069" d="M47,21.4a4.92,4.92,0,0,1-2.152,1.939,7.339,7.339,0,0,1-3.2.661,7.464,7.464,0,0,1-3.233-.661A4.975,4.975,0,0,1,36.239,21.4a5.8,5.8,0,0,1-.779-3.076V8.014h3.656V18.327a2.95,2.95,0,0,0,.627,2.1,2.534,2.534,0,0,0,1.9.65,2.433,2.433,0,0,0,1.849-.65,2.984,2.984,0,0,0,.616-2.1V8.014h3.656V18.327A5.872,5.872,0,0,1,47,21.4" transform="translate(-0.062)" fill="#fff"/>
        <path id="패스_5070" data-name="패스 5070" d="M58.258,18.717a2.188,2.188,0,0,0-.833-.682,11.391,11.391,0,0,0-1.806-.726,11.96,11.96,0,0,1-3.882-1.961,3.763,3.763,0,0,1-1.417-3.066,3.848,3.848,0,0,1,.757-2.361,4.841,4.841,0,0,1,2.1-1.571A8.01,8.01,0,0,1,56.247,7.8a7.255,7.255,0,0,1,3.082.617,4.857,4.857,0,0,1,2.066,1.734,4.526,4.526,0,0,1,.735,2.545H58.5a1.928,1.928,0,0,0-.573-1.473,2.455,2.455,0,0,0-1.741-.542,2.619,2.619,0,0,0-1.643.455,1.4,1.4,0,0,0-.584,1.148,1.363,1.363,0,0,0,.725,1.148,8.94,8.94,0,0,0,2.194.932,9.9,9.9,0,0,1,3.947,2.059,4.191,4.191,0,0,1,1.287,3.162,3.827,3.827,0,0,1-1.557,3.261A6.947,6.947,0,0,1,56.312,24a8.488,8.488,0,0,1-3.147-.586,5.524,5.524,0,0,1-2.4-1.776,4.68,4.68,0,0,1-.919-2.947H53.5a2.264,2.264,0,0,0,.714,1.874,3.285,3.285,0,0,0,2.1.574,2.559,2.559,0,0,0,1.622-.433,1.377,1.377,0,0,0,.541-1.127,1.612,1.612,0,0,0-.217-.866" transform="translate(-0.087)" fill="#fff"/>
        <path id="패스_5071" data-name="패스 5071" d="M74.784,23.331A9.69,9.69,0,0,1,70.913,24a7.2,7.2,0,0,1-3.644-.9,6.015,6.015,0,0,1-2.423-2.622,9.3,9.3,0,0,1-.855-4.171v-.8a9.515,9.515,0,0,1,.834-4.159,6.038,6.038,0,0,1,2.346-2.644A6.715,6.715,0,0,1,70.7,7.8,6.518,6.518,0,0,1,75.26,9.216a6.062,6.062,0,0,1,1.817,3.932H73.551a3.208,3.208,0,0,0-.822-1.83,2.646,2.646,0,0,0-1.925-.618,2.6,2.6,0,0,0-2.314,1.214,6.519,6.519,0,0,0-.8,3.574v.823q0,4.767,3.439,4.767a4.489,4.489,0,0,0,1.448-.184,2.885,2.885,0,0,0,.865-.466V17.98h-2.7V15.336H77.1v6.435a6.459,6.459,0,0,1-2.314,1.56" transform="translate(-0.111)" fill="#fff"/>
        <path id="패스_5072" data-name="패스 5072" d="M95.161,23.245H78.79V20.623h5.428v-4.2h3.2v4.2h7.743ZM93.8,9.552q0,2.4-.141,4.344a34.987,34.987,0,0,1-.725,4.668l-3.093-.3q.325-1.516.563-3.293l-10.014.607L80,12.78,90.619,12.5l.065-1.863H80.563V8.079H93.8Z" transform="translate(-0.137)" fill="#fff"/>
        <path id="패스_5073" data-name="패스 5073" d="M105.726,10.571h-5.407v3.7q2.334-.045,3.828-.163a23.861,23.861,0,0,0,2.876-.4l.3,2.578a21.331,21.331,0,0,1-3.351.444q-1.753.1-5.191.1H97.14V8.014h8.586Zm4,8.167a3.01,3.01,0,0,1,0,5.406,11.128,11.128,0,0,1-9.159,0,3.018,3.018,0,0,1,0-5.406,11.242,11.242,0,0,1,9.159,0m-6.9,1.82a.919.919,0,0,0-.714.888.951.951,0,0,0,.725.921,10,10,0,0,0,4.671-.011.962.962,0,0,0,.747-.91.928.928,0,0,0-.747-.888,7.721,7.721,0,0,0-2.347-.26,7.484,7.484,0,0,0-2.335.26m8.521-3.077h-3.18V6.693h3.18Z" transform="translate(-0.169)" fill="#fff"/>
        <path id="패스_5074" data-name="패스 5074" d="M125.284,8.111a5.845,5.845,0,0,1,2.477,1.853,4.418,4.418,0,0,1,.9,2.73,4.423,4.423,0,0,1-1.47,3.379,7.087,7.087,0,0,1-3.849,1.734v2.642H130v2.622H113.584V20.449h6.575V17.785a7.007,7.007,0,0,1-3.806-1.722,4.423,4.423,0,0,1-1.449-3.369,4.412,4.412,0,0,1,.9-2.73,5.843,5.843,0,0,1,2.465-1.853,8.921,8.921,0,0,1,3.493-.661,9.054,9.054,0,0,1,3.525.661m-6.217,2.622a2.225,2.225,0,0,0-1.006,1.961,2.276,2.276,0,0,0,1,2,4.719,4.719,0,0,0,2.7.682,4.819,4.819,0,0,0,2.736-.682,2.268,2.268,0,0,0,1.005-2,2.218,2.218,0,0,0-1.016-1.961,4.821,4.821,0,0,0-2.725-.682,4.722,4.722,0,0,0-2.692.682" transform="translate(-0.198)" fill="#fff"/>
        <path id="패스_5075" data-name="패스 5075" d="M147.352,18.5H130.98V15.922h16.372Zm-1.385-8.644h-2.032v2.469h1.86v2.492H132.538V12.325h1.838V9.856h-2.033V7.343h13.625Zm-.475,14.971H132.841V19.454h3.222V22.27h9.43Zm-4.78-14.971h-3.137v2.47h3.137Z" transform="translate(-0.228)" fill="#fff"/>
        <path id="패스_5076" data-name="패스 5076" d="M156.055,13.214h1.19V6.866h2.963V24.285h-2.963V15.77h-1.19v4.94H148.81V8.447h7.245Zm-4.346,4.961h1.406V10.96h-1.406Zm12.348,6.933h-3.049V6.693h3.049Z" transform="translate(-0.259)" fill="#fff"/>
        <path id="패스_5077" data-name="패스 5077" d="M175.01,10.744h-5.321v2.491h5.147V15.7h-5.147v2.816a46.319,46.319,0,0,0,6.207-.476l.26,2.578a33.425,33.425,0,0,1-3.655.368q-1.86.087-4.455.087h-1.622V8.123h8.586Zm5.1,2.686h2.422v2.643h-2.422v9.035h-3.2V6.693h3.2Z" transform="translate(-0.29)" fill="#fff"/>
        <path id="패스_5078" data-name="패스 5078" d="M189.506,14.08a10.763,10.763,0,0,1-5.168,4.009l-1.492-2.3a9.277,9.277,0,0,0,3.569-2.253l-2.855.346-.368-2.534,4.521-.2q.064-.3.151-.8h-3.936V7.776h7.116a11.758,11.758,0,0,1-1.536,6.3M198.7,24.935H186.2V18h12.5Zm-9.408-2.557h6.293v-1.82h-6.293ZM198.7,17.4h-3.028V13.3H194.7v3.944h-2.964V7.039H194.7v3.683h.972V6.715H198.7Z" transform="translate(-0.318)" fill="#fff"/>
        <path id="패스_5079" data-name="패스 5079" d="M210.992,10.657h-1.514v7.626l1.861-.2.195,2.3A36.255,36.255,0,0,1,206.5,21q-2.605.141-5.7.141l-.282-2.578,1.73-.022V10.657H201V8.079h9.993Zm-4.607,7.8v-7.8h-1.037V18.5Zm9.516,6.651h-3.157V15.77h-2.184V13.214h2.184V6.693H215.9Z" transform="translate(-0.349)" fill="#fff"/>
        <path id="패스_5080" data-name="패스 5080" d="M234.379,23.05H217.964V20.342h16.415Zm-6.034-11.58a5.844,5.844,0,0,0,1.991,2.21,8.774,8.774,0,0,0,3.611,1.332L232.563,17.7a9.883,9.883,0,0,1-4-1.581,8.058,8.058,0,0,1-2.509-2.817,8.337,8.337,0,0,1-2.531,2.795,10.11,10.11,0,0,1-3.979,1.6l-1.385-2.686a8.565,8.565,0,0,0,3.591-1.354,6,6,0,0,0,1.989-2.231,5.716,5.716,0,0,0,.607-2.524V7.689h3.4V8.9a5.813,5.813,0,0,0,.6,2.567" transform="translate(-0.379)" fill="#fff"/>
        <path id="패스_5081" data-name="패스 5081" d="M39.29,30.808l-3.687,9.6H34.168l3.688-9.6Z" transform="translate(-0.059)" fill="#787878"/>
        <path id="패스_5082" data-name="패스 5082" d="M43.575,30.808l-3.687,9.6H38.453l3.688-9.6Z" transform="translate(-0.067)" fill="#787878"/>
        <path id="패스_5083" data-name="패스 5083" d="M52.809,36.542H51.441V35.348H48.907V34.179h2.534V33.024H49.028a5.259,5.259,0,0,1-1.669,2.256,8.176,8.176,0,0,1-2.93,1.424l-.563-1.142a6.953,6.953,0,0,0,2.869-1.437,3.481,3.481,0,0,0,1.18-2.175H44.456V30.781H49.4a7.265,7.265,0,0,1-.08,1.088h2.117V30h1.369Zm-1.656.37a2.89,2.89,0,0,1,1.274.779,1.728,1.728,0,0,1,.449,1.189,1.768,1.768,0,0,1-.449,1.208,2.855,2.855,0,0,1-1.274.787,6.053,6.053,0,0,1-1.911.275,5.061,5.061,0,0,1-2.668-.611,1.87,1.87,0,0,1-.992-1.659,1.728,1.728,0,0,1,.449-1.189,2.888,2.888,0,0,1,1.281-.779,6.161,6.161,0,0,1,1.931-.275,6.053,6.053,0,0,1,1.911.275M47.54,38.067a.854.854,0,0,0,0,1.632,4.126,4.126,0,0,0,1.7.282A4,4,0,0,0,50.9,39.7a.853.853,0,0,0,0-1.632,3.926,3.926,0,0,0-1.662-.289,4.048,4.048,0,0,0-1.7.289" transform="translate(-0.076)" fill="#787878"/>
        <path id="패스_5084" data-name="패스 5084" d="M55.791,34.488a25.862,25.862,0,0,0,4.357-.47l.161,1.2a25.927,25.927,0,0,1-4.987.469H54.4v-5.13h1.395Zm6.663,6.568H55.469V36.838h6.985ZM56.823,39.9H61.14V37.967H56.823Zm5.631-7.468h1.5v1.182h-1.5v2.726H61.1V30h1.355Z" transform="translate(-0.095)" fill="#787878"/>
        <path id="패스_5085" data-name="패스 5085" d="M76.473,37.43H74.1V41.2H72.691V37.43H70.358V41.2H68.964V37.43H66.618V36.262h9.855ZM73.55,30.714a3.151,3.151,0,0,1,1.374.873,2.013,2.013,0,0,1,0,2.633,3.089,3.089,0,0,1-1.374.866,6.94,6.94,0,0,1-4.05,0,3.1,3.1,0,0,1-1.374-.866,2.016,2.016,0,0,1,0-2.633,3.157,3.157,0,0,1,1.374-.873,6.79,6.79,0,0,1,4.05,0m-3.828,1.209a1.056,1.056,0,0,0,0,1.961,4.87,4.87,0,0,0,3.621,0,1.056,1.056,0,0,0,0-1.961,4.87,4.87,0,0,0-3.621,0" transform="translate(-0.116)" fill="#787878"/>
        <path id="패스_5086" data-name="패스 5086" d="M81.317,30.68a2.532,2.532,0,0,1,1.025.907,2.529,2.529,0,0,1,0,2.632,2.479,2.479,0,0,1-1.018.9,3.493,3.493,0,0,1-2.93,0,2.512,2.512,0,0,1-1.032-.9,2.495,2.495,0,0,1,0-2.632,2.579,2.579,0,0,1,1.032-.907,3.41,3.41,0,0,1,2.923,0M78.75,31.923a1.225,1.225,0,0,0-.422.98,1.249,1.249,0,0,0,.422.988,1.842,1.842,0,0,0,2.212,0,1.249,1.249,0,0,0,.422-.988,1.225,1.225,0,0,0-.422-.98,1.867,1.867,0,0,0-2.212,0M85.8,39.1H79.977v.82H86.09v1.141H78.649V38.007h5.766v-.766H78.609V36.1H85.8Zm0-3.452H84.4V30H85.8Z" transform="translate(-0.134)" fill="#787878"/>
        <path id="패스_5087" data-name="패스 5087" d="M87.88,39.068a.823.823,0,0,1,.629-.242.875.875,0,0,1,.57.181.839.839,0,0,1,.288.477,1.663,1.663,0,0,1,.068.443,2.012,2.012,0,0,1-.27.954,2.546,2.546,0,0,1-.516.672,2.517,2.517,0,0,1-.623.443l-.375-.43a1.8,1.8,0,0,0,.711-1.007l.026-.081a.807.807,0,0,1-.542-.262.8.8,0,0,1-.195-.544.846.846,0,0,1,.229-.6" transform="translate(-0.153)" fill="#787878"/>
        <path id="패스_5088" data-name="패스 5088" d="M102.69,39.847H92.875V38.652h3.594V35.9h1.368v2.754h4.854ZM101.671,32q0,1.451-.08,2.592a21.118,21.118,0,0,1-.4,2.713l-1.34-.147a21.653,21.653,0,0,0,.361-2.364l-6.342.376L93.68,33.91l6.61-.242q.025-.562.026-1.517h-6.3V30.982h7.656Z" transform="translate(-0.162)" fill="#787878"/>
        <path id="패스_5089" data-name="패스 5089" d="M108.81,32.017h-3.768v2.794q1.635-.015,2.675-.094a14.63,14.63,0,0,0,2.017-.3l.148,1.182a15.4,15.4,0,0,1-2.2.3q-1.126.073-3.084.074h-.925V30.862h5.136Zm2.272,5.372a1.811,1.811,0,0,1,0,3.224,6.628,6.628,0,0,1-5.41,0,1.816,1.816,0,0,1,0-3.224,6.628,6.628,0,0,1,5.41,0m-4.411.84a.836.836,0,0,0-.6.772.859.859,0,0,0,.6.786,4.22,4.22,0,0,0,1.71.275,4.266,4.266,0,0,0,1.716-.275.86.86,0,0,0,.6-.786.836.836,0,0,0-.6-.772,5.754,5.754,0,0,0-3.433,0m5.37-1.471h-1.395V30h1.395Z" transform="translate(-0.18)" fill="#787878"/>
        <path id="패스_5090" data-name="패스 5090" d="M123.065,39.807H113.21V38.612h9.855Zm-2.9-8.777a3.435,3.435,0,0,1,1.454,1.115,2.718,2.718,0,0,1,.53,1.659,2.78,2.78,0,0,1-.53,1.672,3.391,3.391,0,0,1-1.454,1.128,5.162,5.162,0,0,1-2.051.4,5.03,5.03,0,0,1-2.024-.4,3.411,3.411,0,0,1-1.441-1.128,2.78,2.78,0,0,1-.53-1.672,2.718,2.718,0,0,1,.53-1.659,3.456,3.456,0,0,1,1.441-1.115,5.031,5.031,0,0,1,2.024-.4,5.163,5.163,0,0,1,2.051.4m-3.982,1.323a1.713,1.713,0,0,0-.751,1.451,1.692,1.692,0,0,0,.751,1.45,3.775,3.775,0,0,0,3.881,0,1.788,1.788,0,0,0-.007-2.908,3.236,3.236,0,0,0-1.944-.544,3.182,3.182,0,0,0-1.931.551" transform="translate(-0.197)" fill="#787878"/>
        <path id="패스_5091" data-name="패스 5091" d="M133.232,39.914h-9.855v-1.2H127.6v-1.76h-3.057V33.265H130.7v-1.33h-6.168V30.754h7.549v3.64h-6.167v1.383h6.409v1.182h-3.352v1.76h4.264Z" transform="translate(-0.215)" fill="#787878"/>
        <path id="패스_5092" data-name="패스 5092" d="M140.341,31.211a2.88,2.88,0,0,1,.945,1.155h2.467V30h1.354V41.217h-1.354V37h-2.387a3.067,3.067,0,0,1-.958,1.295,2.315,2.315,0,0,1-2.816-.027,3.212,3.212,0,0,1-.978-1.39,6.353,6.353,0,0,1,0-4.19,3.224,3.224,0,0,1,.978-1.39,2.345,2.345,0,0,1,2.749-.087m-2.387,1.618a4.013,4.013,0,0,0-.4,1.954,4.018,4.018,0,0,0,.4,1.955,1.193,1.193,0,0,0,1.066.7,1.208,1.208,0,0,0,1.072-.7,3.967,3.967,0,0,0,.4-1.955,3.963,3.963,0,0,0-.4-1.954,1.207,1.207,0,0,0-1.072-.7,1.193,1.193,0,0,0-1.066.7m3.814,1.954a6.478,6.478,0,0,1-.08,1.048h2.064v-2.3h-2.091a7.261,7.261,0,0,1,.107,1.249" transform="translate(-0.237)" fill="#787878"/>
        <path id="패스_5093" data-name="패스 5093" d="M156.079,36.69h-9.855V35.549h9.855Zm-1.045,4.245h-7.643V37.617h1.395V39.78h6.248Zm-.054-6.649h-7.495V30.405h1.382v2.726h6.113Z" transform="translate(-0.255)" fill="#787878"/>
        <path id="패스_5094" data-name="패스 5094" d="M164.8,32.205h-3.821v5.1q1.608-.013,2.607-.081a17.3,17.3,0,0,0,2-.255l.121,1.195a17.015,17.015,0,0,1-2.232.289q-1.147.073-2.957.074H159.6V31.01h5.2Zm3.111,9.012H166.52V30h1.395Z" transform="translate(-0.278)" fill="#787878"/>
        <path id="패스_5095" data-name="패스 5095" d="M173.515,34.992a4.994,4.994,0,0,0,.951,1.6,4.08,4.08,0,0,0,1.481,1.068l-.764,1.142a4.432,4.432,0,0,1-1.609-1.243,6.105,6.105,0,0,1-1.059-1.914,6.96,6.96,0,0,1-1.079,2.082,4.6,4.6,0,0,1-1.615,1.357l-.792-1.142a4.2,4.2,0,0,0,1.461-1.155,5.526,5.526,0,0,0,.959-1.712,5.811,5.811,0,0,0,.328-1.9V32.3h-2.347V31.117h6.087V32.3h-2.333v.873a5.226,5.226,0,0,0,.328,1.82m4.552,6.212h-1.395V30h1.395Z" transform="translate(-0.294)" fill="#787878"/>
        <path id="패스_5096" data-name="패스 5096" d="M184.749,31.8h-3.581V32.6h3.272v1.087h-3.272v.86q1.342,0,2.233-.047t1.79-.181l.107,1.155a18.427,18.427,0,0,1-1.964.188q-.972.039-2.715.04h-.832v-5.05h4.961Zm3.553,7.455h-5.711v.711h6.046V41.11H181.21V38.195h5.739v-.671H181.2V36.369H188.3Zm0-3.278h-1.354V33.588h-1.838V32.447h1.838V30H188.3Z" transform="translate(-0.313)" fill="#787878"/>
        <path id="패스_5097" data-name="패스 5097" d="M197.992,32.165h-6.021V31.023h2.4V29.908h1.355v1.115h2.266Zm-1.656.7a2.157,2.157,0,0,1,.911.759,1.95,1.95,0,0,1,.328,1.108,1.914,1.914,0,0,1-.328,1.1,2.218,2.218,0,0,1-.911.76,3.032,3.032,0,0,1-1.308.275,2.884,2.884,0,0,1-1.267-.275,2.231,2.231,0,0,1-.9-.76,1.914,1.914,0,0,1-.328-1.1,1.95,1.95,0,0,1,.328-1.108,2.179,2.179,0,0,1,.891-.759,2.928,2.928,0,0,1,1.274-.268,3.089,3.089,0,0,1,1.308.268m4.659,8.341h-1.382v-2.39h-5.966v-1.17h7.347Zm-6.851-7.226a1,1,0,0,0,0,1.5,1.31,1.31,0,0,0,.884.289,1.392,1.392,0,0,0,.905-.289.967.967,0,0,0,0-1.5,1.412,1.412,0,0,0-.905-.282,1.328,1.328,0,0,0-.884.282m6.851,3.143h-1.382V35.885h-1.555V34.7h1.555v-.968h-1.541V32.581h1.541V30h1.382Z" transform="translate(-0.334)" fill="#787878"/>
        <path id="패스_5098" data-name="패스 5098" d="M206.831,33.911a3.7,3.7,0,0,0,1.931,1.41l-.724,1.142a4.194,4.194,0,0,1-1.542-.954,4.7,4.7,0,0,1-1.019-1.491,4.9,4.9,0,0,1-1.046,1.612,4.214,4.214,0,0,1-1.6,1.021l-.737-1.142a3.835,3.835,0,0,0,1.978-1.5,4.034,4.034,0,0,0,.69-2.277v-1.1h1.395v1.1a3.77,3.77,0,0,0,.671,2.177m4.572,7.078h-7.442v-3.6h1.368V39.82H211.4Zm-.3-2.78h-1.382V30h1.382Z" transform="translate(-0.352)" fill="#787878"/>
        <path id="패스_5099" data-name="패스 5099" d="M216.013,37.631a30.252,30.252,0,0,0,3.265-.3l.107,1.061a21.8,21.8,0,0,1-3.224.41q-1.644.089-3.654.087l-.175-1.194q1.957,0,3.681-.068m1.287-6.514a2.672,2.672,0,0,1,1.066.974,2.737,2.737,0,0,1,0,2.814,2.691,2.691,0,0,1-1.066.967,3.462,3.462,0,0,1-3.03,0A2.728,2.728,0,0,1,213.2,34.9a2.7,2.7,0,0,1,0-2.814,2.7,2.7,0,0,1,1.079-.974,3.275,3.275,0,0,1,1.514-.349,3.236,3.236,0,0,1,1.508.349m-2.674,1.31a1.34,1.34,0,0,0-.456,1.068,1.362,1.362,0,0,0,.456,1.074,1.89,1.89,0,0,0,2.333,0,1.365,1.365,0,0,0,.456-1.074,1.35,1.35,0,0,0-.456-1.062,1.9,1.9,0,0,0-2.333-.006m6.663,8.79h-1.381V30h1.381Z" transform="translate(-0.37)" fill="#787878"/>
        <path id="패스_5100" data-name="패스 5100" d="M229.443,34.025a7.282,7.282,0,0,1-3.814,1.874l-.483-1.169q3.767-.751,4.049-3.1h-3.472V30.459h4.987a4.942,4.942,0,0,1-1.267,3.566m4.538,5.057H228.2v.859h6.073V41.1h-7.442V38.007h5.752v-.766h-5.792V36.113h7.186Zm0-3.412h-1.395V30h1.395Z" transform="translate(-0.392)" fill="#787878"/>
        <path id="패스_5101" data-name="패스 5101" d="M20.03,17.1l-9.954.877V36.336l16.431,5.2V16.505Z" transform="translate(-0.018)" fill="#787878" fill-rule="evenodd"/>
        <rect id="사각형_4296" data-name="사각형 4296" width="3.093" height="3.099" transform="translate(6.214 12.421)" fill="#fff"/>
        <rect id="사각형_4297" data-name="사각형 4297" width="3.093" height="3.098" transform="translate(3.122 0)" fill="#fff"/>
        <rect id="사각형_4298" data-name="사각형 4298" width="3.122" height="3.127" transform="translate(0 3.098)" fill="#fff"/>
        <rect id="사각형_4299" data-name="사각형 4299" width="3.093" height="3.098" transform="translate(3.122 6.225)" fill="#fff"/>
        <path id="패스_5102" data-name="패스 5102" d="M22.733,36.673V6.466l-10.328.952v1.9H9.312v3.1h3.094v3.1H9.312v3.127H6.219V15.519H3.126V30.464Z" transform="translate(-0.005)" fill="#fff" fill-rule="evenodd"/>
      </g>
    </g>
  </g>
</svg>
