<svg width="30" height="30" viewBox="0 0 30 30" fill="none" xmlns="http://www.w3.org/2000/svg">
<path fill-rule="evenodd" clip-rule="evenodd" d="M22.2191 20.5217C25.1578 16.7475 24.8923 11.2872 21.4228 7.81771C17.6659 4.06076 11.5747 4.06076 7.81771 7.81771C4.06076 11.5747 4.06076 17.6659 7.81771 21.4228C11.2872 24.8923 16.7475 25.1578 20.5217 22.2191C20.538 22.2375 20.5549 22.2555 20.5725 22.2731L22.9471 24.6478C23.4168 25.1174 24.1782 25.1174 24.6478 24.6478C25.1174 24.1782 25.1174 23.4168 24.6478 22.9471L22.2731 20.5725C22.2555 20.5549 22.2375 20.538 22.2191 20.5217ZM19.7222 9.51835C22.5399 12.3361 22.5399 16.9045 19.7222 19.7222C16.9045 22.5399 12.3361 22.5399 9.51835 19.7222C6.70064 16.9045 6.70064 12.3361 9.51835 9.51835C12.3361 6.70064 16.9045 6.70064 19.7222 9.51835Z" fill="#233F86" fill-opacity="0.7"/>
</svg>
