<?xml version="1.0" encoding="UTF-8"?>
<svg id="Layer_1" xmlns="http://www.w3.org/2000/svg" version="1.1" viewBox="0 0 30 30">
  <!-- Generator: Adobe Illustrator 29.0.1, SVG Export Plug-In . SVG Version: 2.1.0 Build 192)  -->
  <defs>
    <style>
      .st0 {
        fill: #fff;
        fill-opacity: .7;
        fill-rule: evenodd;
      }
    </style>
  </defs>
  <g id="Layer_11" data-name="Layer_1">
    <path class="st0" d="M22.2,20.5c2.9-3.8,2.7-9.2-.8-12.7-3.8-3.8-9.8-3.8-13.6,0s-3.8,9.8,0,13.6c3.5,3.5,8.9,3.7,12.7.8h0l2.4,2.4c.5.5,1.2.5,1.7,0s.5-1.2,0-1.7l-2.4-2.4h0ZM19.7,9.5c2.8,2.8,2.8,7.4,0,10.2-2.8,2.8-7.4,2.8-10.2,0s-2.8-7.4,0-10.2,7.4-2.8,10.2,0Z"/>
  </g>
</svg>